<?xml version="1.0" standalone="no"?>
<!DOCTYPE svg PUBLIC "-//W3C//DTD SVG 20010904//EN"
 "http://www.w3.org/TR/2001/REC-SVG-20010904/DTD/svg10.dtd">
<svg version="1.0" xmlns="http://www.w3.org/2000/svg"
 width="90.000000pt" height="90.000000pt" viewBox="0 0 90.000000 90.000000"
 preserveAspectRatio="xMidYMid meet">
<metadata>
Created by potrace 1.16, written by Peter Selinger 2001-2019
</metadata>
<g transform="translate(0.000000,90.000000) scale(0.100000,-0.100000)"
fill="#000000" stroke="none">
<path d="M0 450 l0 -450 450 0 450 0 0 450 0 450 -450 0 -450 0 0 -450z m530
345 c10 -12 10 -36 0 -115 -7 -56 -10 -103 -7 -106 3 -3 40 22 82 55 43 34 86
61 99 61 57 0 112 -135 66 -162 -8 -4 -55 -24 -103 -44 l-88 -36 103 -42 c92
-37 103 -44 106 -68 3 -27 -18 -79 -46 -110 -26 -31 -60 -21 -143 42 -89 68
-85 72 -68 -62 15 -112 11 -118 -81 -118 -92 0 -96 6 -81 118 17 134 21 130
-68 62 -83 -63 -117 -73 -143 -42 -28 31 -49 83 -46 110 3 24 14 31 106 68
l102 41 -92 38 c-51 21 -99 43 -106 48 -38 29 22 157 74 157 13 0 56 -27 99
-61 42 -33 79 -58 82 -55 3 3 0 50 -7 106 -15 126 -13 130 80 130 48 0 71 -4
80 -15z"/>
</g>
</svg>
